{"title":"Major Payne 1995 DVDRip [H.264 - MP4 - AAC] ~Mindbreaker","uid":5187635,"size":1369830668,"categoryP":"video","categoryS":"movies","magnet":"?xt=urn:btih:3a26c78edb2051985e85736bb4c410857d783188&amp;dn=Major+Payne+1995+DVDRip+%5BH.264+-+MP4+-+AAC%5D+%7EMindbreaker&amp;tr=udp%3A%2F%2Ftracker.openbittorrent.com%3A80&amp;tr=udp%3A%2F%2Fopen.demonii.com%3A1337&amp;tr=udp%3A%2F%2Ftracker.coppersurfer.tk%3A6969&amp;tr=udp%3A%2F%2Fexodus.desync.com%3A6969","seeders":0,"leechers":1,"uploader":"mind3103","files":-1,"time":1259534923,"description":"\n\nimdb : http://www.imdb.com/title/tt0110443/\nTagline: He's looking for a few good men... or a few guys old enough to shave. \nPlot: Major Benson Winifred Payne is being discharged from the Marines. Payne is a killin' machine, but the... \nTotal Size : 1.28 GB\n\n[code]General\nComplete name : Major Payne 1995 DVDRip [H.264 - MP4 - AAC] ~Mindbreaker.mp4\nFormat : H.264/AAC/MP4 - Anamophic\nSource : DVD (ripped by unknow)\nFile size : 1.28 GiB\nDuration : 1h 33mn\nOverall bit rate : 1 963 Kbps\n\n\nVideo\nID : 1\nFormat : AVC\nFormat/Info : Advanced Video Codec\nFormat profile : &lt;a class=&quot;__cf_email__&quot; href=&quot;/cdn-cgi/l/email-protection&quot; data-cfemail=&quot;85cdece2edc5c9b6abb5&quot;&gt;[email&amp;#160;protected]&lt;/a&gt;&lt;script cf-hash='f9e31' type=&quot;text/javascript&quot;&gt;\n/* &lt;![CDATA[ */!function(){try{var t=&quot;currentScript&quot;in document?document.currentScript:function(){for(var t=document.getElementsByTagName(&quot;script&quot;),e=t.length;e--;)if(t[e].getAttribute(&quot;cf-hash&quot;))return t[e]}();if(t&amp;&amp;t.previousSibling){var e,r,n,i,c=t.previousSibling,a=c.getAttribute(&quot;data-cfemail&quot;);if(a){for(e=&quot;&quot;,r=parseInt(a.substr(0,2),16),n=2;a.length-n;n+=2)i=parseInt(a.substr(n,2),16)^r,e+=String.fromCharCode(i);e=document.createTextNode(e),c.parentNode.replaceChild(e,c)}}}catch(u){}}();/* ]]&gt; */&lt;/script&gt;\nDuration : 1h 33mn\nBit rate : 1800 Kbps\nWidth : 720 pixels\nHeight : 400 pixels\nDisplay aspect ratio : 16:1\nFrame rate : 25 fps\nBits/(Pixel*Frame) : 0.250\nStream size : 1.17 GiB (92%)\nWriting library : x264 core 65\n\nAudio\nID : 2\nFormat : AAC\nFormat/Info : Advanced Audio Codec\nFormat profile : LC\nDuration : 1h 33mn\nBit rate : 160 Kbps\nChannel(s) : 2 channels\nSampling rate : 48.0 KHz\nStream size : 106 MiB (8%)\nLanguage : English\n\nSubtitle\nFormat : SubRip\nLanguage : Dutch &amp; English\nSource : DVD\n &lt;a href=&quot;\nhttp://genesis.1337x.org:1337/announce&quot; rel=&quot;nofollow&quot; target=&quot;_NEW&quot;&gt;\nhttp://genesis.1337x.org:1337/announce&lt;/a&gt; &lt;a href=&quot;\nhttp://tracker.openbittorrent.com/announce[/code]&quot; rel=&quot;nofollow&quot; target=&quot;_NEW&quot;&gt;\nhttp://tracker.openbittorrent.com/announce[/code]&lt;/a&gt;\n\n","torrent":{"xt":"urn:btih:3a26c78edb2051985e85736bb4c410857d783188","amp;dn":"Major+Payne+1995+DVDRip+%5BH.264+-+MP4+-+AAC%5D+%7EMindbreaker","amp;tr":["udp%3A%2F%2Ftracker.openbittorrent.com%3A80","udp%3A%2F%2Fopen.demonii.com%3A1337","udp%3A%2F%2Ftracker.coppersurfer.tk%3A6969","udp%3A%2F%2Fexodus.desync.com%3A6969"],"infoHash":"3a26c78edb2051985e85736bb4c410857d783188","infoHashBuffer":{"type":"Buffer","data":[58,38,199,142,219,32,81,152,94,133,115,107,180,196,16,133,125,120,49,136]},"announce":[],"urlList":[]}}